<svg xmlns="http://www.w3.org/2000/svg" viewBox="0 0 1600 1000" width="1600" height="1000" role="img" aria-label="$>B> A:>@>">
  <defs>
    <linearGradient id="bg" x1="0" y1="0" x2="1" y2="1">
      <stop offset="0" stop-color="#f2f4f7"/>
      <stop offset="1" stop-color="#e6e9ef"/>
    </linearGradient>
  </defs>
  <rect width="1600" height="1000" fill="url(#bg)"/>
  <g fill="none" stroke="#9aa3b2" stroke-width="24" stroke-linecap="round" stroke-linejoin="round">
    <path d="M420 620c90-120 240-180 380-180h140c150 0 280 70 360 190"/>
    <path d="M360 620h80l60-120c16-32 48-52 84-52h516c36 0 68 20 84 52l64 120h88"/>
    <path d="M400 620v130h120"/>
    <path d="M1200 750h120V620"/>
    <circle cx="560" cy="760" r="72"/>
    <circle cx="1080" cy="760" r="72"/>
  </g>
  <text x="800" y="540" text-anchor="middle" font-family="system-ui, -apple-system, Segoe UI, Roboto, Arial, sans-serif" font-size="54" fill="#556070">
    $>B> A:>@>
  </text>
</svg>
